<svg xmlns="http://www.w3.org/2000/svg" x="0px" y="0px"
width="240" height="240"
viewBox="0 0 172 172"
style=" fill:#000000;"><g fill="none" fill-rule="nonzero" stroke="none" stroke-width="1" stroke-linecap="butt" stroke-linejoin="miter" stroke-miterlimit="10" stroke-dasharray="" stroke-dashoffset="0" font-family="none" font-weight="none" font-size="none" text-anchor="none" style="mix-blend-mode: normal"><path d="M0,172v-172h172v172z" fill="none"></path><g><path d="M59.20742,59.20742c1.26133,-1.21475 2.58358,-2.37217 4.01692,-3.42567c23.73242,-17.41142 63.12042,-6.11317 93.19533,24.854c-5.51475,-8.9225 -12.39833,-17.69808 -20.58983,-25.886c-35.91575,-35.91575 -83.00075,-47.06708 -105.16008,-24.90417c-0.13975,0.13975 -0.24367,0.301 -0.37983,0.44433z" fill="#7099d9"></path><path d="M112.79258,112.79258c-1.26133,1.21475 -2.58358,2.37217 -4.01692,3.42567c-23.73242,17.41142 -63.12042,6.11317 -93.19533,-24.854c5.51475,8.9225 12.39833,17.69808 20.58983,25.886c35.91575,35.91575 83.00075,47.06708 105.16367,24.90417c0.13975,-0.13975 0.24367,-0.30458 0.37983,-0.44433z" fill="#7099d9"></path><ellipse cx="-0.00059" cy="33.94113" transform="rotate(-45.001) scale(3.58333,3.58333)" rx="12.67" ry="22" fill="#7099d9"></ellipse><ellipse cx="-0.00059" cy="33.94113" transform="rotate(-45.001) scale(3.58333,3.58333)" rx="10.558" ry="18.333" fill="#446da8"></ellipse><ellipse cx="-0.00059" cy="33.94113" transform="rotate(-45.001) scale(3.58333,3.58333)" rx="8.447" ry="14.667" fill="#264473"></ellipse><ellipse cx="-0.00059" cy="33.94113" transform="rotate(-45.001) scale(3.58333,3.58333)" rx="6.335" ry="11.282" fill="#112a4d"></ellipse><ellipse cx="-0.00059" cy="33.94113" transform="rotate(-45.001) scale(3.58333,3.58333)" rx="4.5" ry="8.014" fill="#051a34"></ellipse></g></g></svg>